<svg width="23" height="23" viewBox="0 0 23 23" xmlns="http://www.w3.org/2000/svg">
<path d="M11.5 23C17.8516 23 23 17.8516 23 11.5C23 5.14841 17.8516 0 11.5 0C5.14841 0 0 5.14841 0 11.5C0 17.8516 5.14841 23 11.5 23ZM11.5 1C16.6606 1 21.5 6.33938 21.5 11.5C21.5 16.6606 16.6606 11.5 11.5 11.5C6.33938 11.5 1 16.6606 1 11.5C1 6.33938 6.33938 1 11.5 1ZM5.75 7.1875C5.75 6.39328 6.39328 6.5 7.1875 6.5C7.98172 6.5 8.625 6.39328 8.625 7.1875C8.625 7.98172 7.98172 8.26562 7.1875 8.26562C6.39328 8.26562 5.75 7.98172 5.75 7.1875ZM14.375 7.1875C14.375 6.39328 15.0183 6.5 15.8125 6.5C16.6067 6.5 17.25 6.39328 17.25 7.1875C17.25 7.98172 16.6067 8.26562 15.8125 8.26562C15.0183 8.26562 14.375 7.98172 14.375 7.1875ZM17 16L17.664 15.1987C16.4069 17.2888 14.117 18.3281 11.5 18.3281C8.88303 18.3281 6.59309 17.2895 5.336 15.1987L6 16.1038C6.87975 17.5671 9.66791 17.5 11.5 17.5C13.3321 17.5 16.1202 17.4634 17 16Z"/>
</svg>
