<svg width="17" height="22" viewBox="0 0 17 22" xmlns="http://www.w3.org/2000/svg">
<path d="M13.2812 1.375H8.5V2.75H13.2812C13.4221 2.75 13.5573 2.82243 13.6569 2.95136C13.7565 3.0803 13.8125 3.25516 13.8125 3.4375V18.5625C13.8125 18.7448 13.7565 18.9197 13.6569 19.0486C13.5573 19.1776 13.4221 19.25 13.2812 19.25H8.5V20.625H13.2812C13.7039 20.625 14.1093 20.4077 14.4082 20.0209C14.7071 19.6341 14.875 19.1095 14.875 18.5625V3.4375C14.875 2.89049 14.7071 2.36589 14.4082 1.97909C14.1093 1.5923 13.7039 1.375 13.2812 1.375Z"/>
<path d="M11.4644 11.6875V10.3125H3.71876L5.84376 7.56255L5.08939 6.56567L2.43314 10.0032C2.33435 10.1309 2.25598 10.2825 2.20251 10.4494C2.14904 10.6164 2.12152 10.7953 2.12152 10.976C2.12152 11.1567 2.14904 11.3356 2.20251 11.5025C2.25598 11.6695 2.33435 11.8211 2.43314 11.9488L5.08939 15.3863L5.84376 14.4375L3.71876 11.6875H11.4644Z"/>
</svg>
