<svg width="18" height="14" viewBox="0 0 18 14" xmlns="http://www.w3.org/2000/svg">
<path d="M14.9 1.8C16.1 0.8 15.8 0 14.2 0H3.7C2.2 0 1.9 0.8 3.1 1.8L6.8 4.9C8 5.9 10 5.9 11.2 4.9L14.9 1.8V1.8Z"/>
<path d="M11.9 7.10008C10.7 8.10008 9.7 8.90007 9.7 8.90007C9.6 9.00007 9.5 9.00008 9.4 9.00008H9.3C9.2 9.10008 9.1 9.10008 9 9.10008C8.9 9.10008 8.8 9.10008 8.7 9.00008H8.6C8.5 9.00008 8.4 9.00007 8.3 8.90007C8.3 8.90007 7.3 8.10008 6.1 7.10008L2.2 3.80008C1 2.80008 0 3.30008 0 4.80008V11.1001C0 12.7001 1.3 14.0001 2.8 14.0001H15.1C16.7 14.0001 17.9 12.7001 17.9 11.2001V4.80008C17.9 3.20008 16.9 2.80008 15.7 3.80008L11.9 7.10008V7.10008Z"/>
</svg>
