<svg viewBox="0 0 13 13" xmlns="http://www.w3.org/2000/svg">
<path d="M7.43889 6.5L12.7833 1.15556C13.0722 0.866667 13.0722 0.505556 12.7833 0.216667C12.4944 -0.0722222 12.1333 -0.0722222 11.8444 0.216667L6.5 5.56111L1.15556 0.216667C0.866667 -0.0722222 0.505556 -0.0722222 0.216667 0.216667C-0.0722222 0.505556 -0.0722222 0.866667 0.216667 1.15556L5.56111 6.5L0.216667 11.8444C-0.0722222 12.1333 -0.0722222 12.4944 0.216667 12.7833C0.505556 13.0722 0.866667 13.0722 1.15556 12.7833L6.5 7.43889L11.8444 12.7833C12.1333 13.0722 12.4944 13.0722 12.7833 12.7833C13.0722 12.4944 13.0722 12.1333 12.7833 11.8444L7.43889 6.5Z"/>
</svg>
