<svg xmlns="http://www.w3.org/2000/svg">
<path d="M15.0284 -0.00012207C6.74195 -0.00012207 0 5.23782 0 11.6766C0 15.842 2.83968 19.6344 7.42279 21.7224L5.10774 24.4457C4.9738 24.6034 4.96482 24.8304 5.08595 24.9982C5.17439 25.1199 5.31475 25.188 5.46022 25.188C5.51469 25.188 5.57045 25.1785 5.62364 25.1584L11.3787 23.004C12.5808 23.2313 13.8067 23.3533 15.0284 23.3533C23.3148 23.3533 30.0561 18.1154 30.0561 11.6766C30.0561 5.23781 23.3148 -0.00012207 15.0284 -0.00012207ZM18.368 19.4272C18.5641 19.3906 18.7589 19.3496 18.9505 19.3042C19.1915 19.2475 19.4453 19.3951 19.5049 19.6379C19.5645 19.8807 19.4126 20.1248 19.1658 20.1834C18.9589 20.2326 18.7499 20.2761 18.5384 20.3152C18.5096 20.3209 18.4807 20.3234 18.4526 20.3234C18.2359 20.3234 18.0437 20.1721 18.002 19.9551C17.9546 19.7098 18.1187 19.4733 18.368 19.4272ZM22.6528 18.7877C22.2504 19.028 21.821 19.25 21.3762 19.4462C21.1878 19.5294 20.9955 19.6082 20.7994 19.6827C20.745 19.7035 20.6886 19.7136 20.6334 19.7136C20.4495 19.7136 20.2758 19.6038 20.2053 19.4247C20.1137 19.192 20.231 18.9303 20.4675 18.8401C20.6482 18.7707 20.8264 18.6982 21.0007 18.6212C21.4102 18.4402 21.8056 18.2365 22.1754 18.0151C24.6229 16.5519 26.0257 14.3602 26.0257 12.0021C26.0257 11.7523 26.2314 11.5498 26.4852 11.5498C26.739 11.5498 26.9447 11.7523 26.9447 12.0021C26.9447 14.6838 25.3803 17.1567 22.6528 18.7877Z"/>
</svg>
