<svg width="16" height="16" viewBox="0 0 16 16" xmlns="http://www.w3.org/2000/svg">
<path d="M14.9944 14.3L12.0299 11.196C12.8675 10.023 13.3708 8.576 13.3708 7C13.3708 3.134 10.3776 0 6.68539 0C2.99315 0 0 3.134 0 7C0 10.866 2.99315 14 6.68539 14C8.19056 14 9.57253 13.473 10.6899 12.596L13.6573 15.7C13.834 15.884 14.0202 16 14.3258 16C14.854 16 15.2809 15.553 15.2809 15C15.2809 14.781 15.2284 14.546 14.9944 14.3ZM1.91011 7C1.91011 4.238 4.04753 2 6.68539 2C9.32326 2 11.4607 4.238 11.4607 7C11.4607 9.762 9.32326 12 6.68539 12C4.04753 12 1.91011 9.762 1.91011 7Z"/>
</svg>