<svg width="19" height="20" viewBox="0 0 19 20" xmlns="http://www.w3.org/2000/svg">
<path d="M16.7522 10.975C16.7913 10.655 16.8206 10.33 16.8206 10C16.8206 9.67 16.7913 9.345 16.7522 9.025L18.8173 7.37C19.0028 7.22 19.0565 6.95 18.9345 6.73L16.9817 3.265C16.8596 3.05 16.6057 2.96 16.3861 3.05L13.9548 4.055C13.452 3.66 12.9003 3.325 12.3047 3.07L11.9386 0.42C11.8946 0.185 11.6945 0 11.4504 0H7.54476C7.30066 0 7.1005 0.185 7.06144 0.42L6.69529 3.07C6.09969 3.325 5.54802 3.655 5.04518 4.055L2.61394 3.05C2.39425 2.965 2.14039 3.05 2.01834 3.265L0.0655383 6.73C-0.0565116 6.945 -0.00280954 7.215 0.182706 7.37L2.24291 9.025C2.20385 9.345 2.17456 9.67 2.17456 10C2.17456 10.33 2.20385 10.655 2.24291 10.975L0.182706 12.63C-0.00280954 12.78 -0.0565116 13.05 0.0655383 13.27L2.01834 16.735C2.14039 16.95 2.39425 17.04 2.61394 16.95L5.04518 15.945C5.54802 16.34 6.09969 16.675 6.69529 16.93L7.06144 19.58C7.1005 19.815 7.30066 20 7.54476 20H11.4504C11.6945 20 11.8946 19.815 11.9337 19.58L12.2998 16.93C12.8954 16.675 13.4471 16.345 13.9499 15.945L16.3812 16.95C16.6009 17.035 16.8547 16.95 16.9768 16.735L18.9296 13.27C19.0516 13.055 18.9979 12.785 18.8124 12.63L16.7522 10.975V10.975ZM9.49756 13.5C7.60823 13.5 6.08016 11.935 6.08016 10C6.08016 8.065 7.60823 6.5 9.49756 6.5C11.3869 6.5 12.915 8.065 12.915 10C12.915 11.935 11.3869 13.5 9.49756 13.5Z"/>
</svg>
