<svg  xmlns="http://www.w3.org/2000/svg">
<path d="M5.875 12H3.125C1.6125 12 0.375 13.05 0.375 14.3333V21.3333C0.375 22.6167 1.6125 23.6667 3.125 23.6667H5.875C7.3875 23.6667 8.625 22.6167 8.625 21.3333V14.3333C8.625 13.05 7.3875 12 5.875 12Z" />
<path d="M16.875 0.333252H14.125C12.6125 0.333252 11.375 1.38325 11.375 2.66659V21.3333C11.375 22.6166 12.6125 23.6666 14.125 23.6666H16.875C18.3875 23.6666 19.625 22.6166 19.625 21.3333V2.66659C19.625 1.38325 18.3875 0.333252 16.875 0.333252Z" />
<path d="M27.875 7.33325H25.125C23.6125 7.33325 22.375 8.38325 22.375 9.66659V21.3333C22.375 22.6166 23.6125 23.6666 25.125 23.6666H27.875C29.3875 23.6666 30.625 22.6166 30.625 21.3333V9.66659C30.625 8.38325 29.3875 7.33325 27.875 7.33325Z" />
</svg>
