<?xml version="1.0" encoding="utf-8"?><svg xmlns="http://www.w3.org/2000/svg" xmlns:xlink="http://www.w3.org/1999/xlink"><symbol viewBox="0 0 18 14" id="menu-btn" xmlns="http://www.w3.org/2000/svg"><path d="M1.031 3.818H16.16c.55 0 1.031-.89 1.031-1.909C17.191.891 16.71 0 16.16 0H1.03C.481 0 0 .89 0 1.91c0 1.017.481 1.908 1.031 1.908zm15.129 6.364H1.03c-.55 0-1.031.89-1.031 1.909C0 13.109.481 14 1.031 14H16.16c.55 0 1.031-.89 1.031-1.91 0-1.017-.481-1.908-1.031-1.908z"/></symbol><symbol viewBox="0 0 13 13" id="menu-close" xmlns="http://www.w3.org/2000/svg"><path d="M7.439 6.5l5.344-5.344c.29-.29.29-.65 0-.94-.289-.288-.65-.288-.939 0L6.5 5.562 1.156.217c-.29-.29-.65-.29-.94 0-.288.289-.288.65 0 .939L5.562 6.5.217 11.844c-.29.29-.29.65 0 .94.289.288.65.288.939 0L6.5 7.438l5.344 5.344c.29.29.65.29.94 0 .288-.289.288-.65 0-.939L7.438 6.5z"/></symbol><symbol viewBox="0 0 16 16" id="search" xmlns="http://www.w3.org/2000/svg"><path d="M14.994 14.3l-2.964-3.104A7.196 7.196 0 0013.37 7c0-3.866-2.992-7-6.685-7C2.993 0 0 3.134 0 7s2.993 7 6.685 7a6.457 6.457 0 004.005-1.404l2.967 3.104c.177.184.363.3.669.3.528 0 .955-.447.955-1a.952.952 0 00-.287-.7zM1.91 7c0-2.762 2.138-5 4.775-5 2.638 0 4.776 2.238 4.776 5s-2.138 5-4.776 5C4.048 12 1.91 9.762 1.91 7z"/></symbol></svg>