<?xml version="1.0" encoding="utf-8"?><svg xmlns="http://www.w3.org/2000/svg" xmlns:xlink="http://www.w3.org/1999/xlink"><symbol viewBox="0 0 6 16" id="back" xmlns="http://www.w3.org/2000/svg"><path d="M5.2 8l4.667-6.777c.2-.282.2-.753 0-.988-.2-.282-.5-.282-.7 0L4.133 7.482c-.2.283-.2.753 0 .988l5.034 7.295c.1.14.233.188.333.188s.267-.047.333-.188c.2-.283.2-.753 0-.989L5.2 8z"/></symbol><symbol id="dots" viewBox="0 0 27 5" xml:space="preserve" xmlns="http://www.w3.org/2000/svg"><style>.bst0{fill:#606161}</style><circle class="bst0" cx="2.5" cy="2.5" r="2.5"/><circle class="bst0" cx="13.5" cy="2.5" r="2.5"/><circle class="bst0" cx="24.5" cy="2.5" r="2.5"/></symbol><symbol viewBox="0 0 17 22" id="logout" xmlns="http://www.w3.org/2000/svg"><path d="M13.281 1.375H8.5V2.75h4.781a.48.48 0 01.376.201c.1.13.155.304.155.486v15.126a.801.801 0 01-.155.486.479.479 0 01-.376.201H8.5v1.375h4.781c.423 0 .828-.217 1.127-.604.3-.387.467-.912.467-1.459V3.438c0-.547-.168-1.071-.467-1.458-.299-.387-.704-.604-1.127-.604z"/><path d="M11.464 11.688v-1.376H3.72l2.125-2.75-.755-.996-2.656 3.437c-.099.128-.177.28-.23.446a1.733 1.733 0 000 1.053c.053.167.131.32.23.447l2.656 3.437.755-.948-2.125-2.75h7.745z"/></symbol><symbol viewBox="0 0 18 14" id="menu-btn" xmlns="http://www.w3.org/2000/svg"><path d="M1.031 3.818H16.16c.55 0 1.031-.89 1.031-1.909C17.191.891 16.71 0 16.16 0H1.03C.481 0 0 .89 0 1.91c0 1.017.481 1.908 1.031 1.908zm15.129 6.364H1.03c-.55 0-1.031.89-1.031 1.909C0 13.109.481 14 1.031 14H16.16c.55 0 1.031-.89 1.031-1.91 0-1.017-.481-1.908-1.031-1.908z"/></symbol><symbol viewBox="0 0 13 13" id="menu-close" xmlns="http://www.w3.org/2000/svg"><path d="M7.439 6.5l5.344-5.344c.29-.29.29-.65 0-.94-.289-.288-.65-.288-.939 0L6.5 5.562 1.156.217c-.29-.29-.65-.29-.94 0-.288.289-.288.65 0 .939L5.562 6.5.217 11.844c-.29.29-.29.65 0 .94.289.288.65.288.939 0L6.5 7.438l5.344 5.344c.29.29.65.29.94 0 .288-.289.288-.65 0-.939L7.438 6.5z"/></symbol><symbol viewBox="0 0 16 16" id="search" xmlns="http://www.w3.org/2000/svg"><path d="M14.994 14.3l-2.964-3.104A7.196 7.196 0 0013.37 7c0-3.866-2.992-7-6.685-7C2.993 0 0 3.134 0 7s2.993 7 6.685 7a6.457 6.457 0 004.005-1.404l2.967 3.104c.177.184.363.3.669.3.528 0 .955-.447.955-1a.952.952 0 00-.287-.7zM1.91 7c0-2.762 2.138-5 4.775-5 2.638 0 4.776 2.238 4.776 5s-2.138 5-4.776 5C4.048 12 1.91 9.762 1.91 7z"/></symbol><symbol viewBox="0 0 19 20" id="settings" xmlns="http://www.w3.org/2000/svg"><path d="M16.752 10.975c.04-.32.069-.645.069-.975 0-.33-.03-.655-.069-.975l2.065-1.655c.186-.15.24-.42.117-.64l-1.952-3.465c-.122-.215-.376-.305-.596-.215l-2.431 1.005a7.369 7.369 0 00-1.65-.985L11.939.42A.506.506 0 0011.45 0H7.545a.497.497 0 00-.484.42l-.366 2.65a7.187 7.187 0 00-1.65.985L2.614 3.05a.483.483 0 00-.596.215L.066 6.73a.51.51 0 00.117.64l2.06 1.655c-.04.32-.068.645-.068.975 0 .33.029.655.068.975L.183 12.63a.507.507 0 00-.117.64l1.952 3.465a.478.478 0 00.596.215l2.431-1.005a7.37 7.37 0 001.65.985l.366 2.65c.04.235.24.42.484.42h3.905a.497.497 0 00.484-.42l.366-2.65a7.186 7.186 0 001.65-.985l2.431 1.005c.22.085.474 0 .596-.215l1.953-3.465a.51.51 0 00-.118-.64l-2.06-1.655zM9.498 13.5c-1.89 0-3.418-1.565-3.418-3.5s1.528-3.5 3.418-3.5c1.889 0 3.417 1.565 3.417 3.5s-1.528 3.5-3.417 3.5z"/></symbol><symbol viewBox="0 0 15 11" id="triangle" xmlns="http://www.w3.org/2000/svg"><path d="M13.946 10.109l-13.9-.044L7.078.087l6.868 10.022z" fill="#8E866A"/></symbol></svg>